<?xml version="1.0" encoding="UTF-8" standalone="no"?><!DOCTYPE svg PUBLIC "-//W3C//DTD SVG 1.1//EN" "http://www.w3.org/Graphics/SVG/1.1/DTD/svg11.dtd"><svg width="100%" height="100%" viewBox="0 0 26 26" version="1.1" xmlns="http://www.w3.org/2000/svg" xmlns:xlink="http://www.w3.org/1999/xlink" xml:space="preserve" xmlns:serif="http://www.serif.com/" style="fill-rule:evenodd;stroke-linejoin:round;stroke-miterlimit:1.41421;"><path d="M20.41,24.5l-14.82,0c-1.154,0 -2.09,-0.936 -2.09,-2.09l0,-15.82c0,-0.949 0.633,-1.751 1.5,-2.005l0,-2.425c0,-0.364 0.296,-0.66 0.66,-0.66l14.68,0c0.364,0 0.66,0.296 0.66,0.66l0,2.425c0.867,0.254 1.5,1.056 1.5,2.005l0,2.54l-3.849,-3.299c-0.167,-0.133 -0.361,-0.213 -0.571,-0.238c-0.739,-0.03 -1.012,0.373 -1.077,0.918l-0.007,3.079c-6.772,0.05 -11.005,9.372 -8.207,9.977c0.481,0.105 0.935,-0.287 0.935,-0.287c1.955,-2.052 4.522,-3.664 7.276,-3.69l0,3c0.025,0.628 0.419,0.958 0.923,0.997c0.206,0.016 0.32,0.085 0.728,-0.238l3.849,-3.299l0,6.36c0,1.153 -0.936,2.09 -2.09,2.09Zm2.09,-12.736l0,1.652l-3.5,3l0,-1.826c-0.019,-0.491 -0.363,-0.892 -0.844,-0.988c-3.248,-0.384 -7.323,2.091 -7.323,2.091c1.004,-1.906 2.773,-3.5 4.91,-3.966c1.392,-0.305 3.116,0.109 3.254,-1.059l0.003,-1.904l3.5,3Z" style="fill:#fff;"/><path id="Share-Icon" serif:id="Share Icon" d="M25,12.59l-7,6l0,-4l-1,0c-3.18,0 -6.046,1.931 -8,4c0.207,-3.969 3.715,-8 8,-8l1,0l0,-4l7,6Z" style="fill:#fff;"/></svg>