<?xml version="1.0" encoding="UTF-8" standalone="no"?><!DOCTYPE svg PUBLIC "-//W3C//DTD SVG 1.1//EN" "http://www.w3.org/Graphics/SVG/1.1/DTD/svg11.dtd"><svg width="100%" height="100%" viewBox="0 0 26 26" version="1.1" xmlns="http://www.w3.org/2000/svg" xmlns:xlink="http://www.w3.org/1999/xlink" xml:space="preserve" xmlns:serif="http://www.serif.com/" style="fill-rule:evenodd;stroke-linejoin:round;stroke-miterlimit:1.41421;"><path d="M13,0c7.175,0 13,5.825 13,13c0,7.175 -5.825,13 -13,13c-7.175,0 -13,-5.825 -13,-13c0,-7.175 5.825,-13 13,-13Zm-1.661,11.278l0,-8.048c0,-0.061 0.025,-0.119 0.068,-0.163c0.043,-0.043 0.101,-0.067 0.162,-0.067c0.627,0 2.358,0 2.985,0c0.061,0 0.119,0.024 0.163,0.067c0.043,0.044 0.067,0.102 0.067,0.163l0,8.048l7.95,0c0.127,0 0.23,0.103 0.23,0.23c0,0.626 0,2.358 0,2.984c0,0.127 -0.103,0.23 -0.23,0.23l-7.95,0l0,8.048c0,0.061 -0.024,0.119 -0.067,0.163c-0.044,0.043 -0.102,0.067 -0.163,0.067c-0.627,0 -2.358,0 -2.985,0c-0.061,0 -0.119,-0.024 -0.162,-0.067c-0.043,-0.044 -0.068,-0.102 -0.068,-0.163l0,-8.048l-8.073,0c-0.127,0 -0.23,-0.103 -0.23,-0.23c0,-0.626 0,-2.358 0,-2.984c0,-0.127 0.103,-0.23 0.23,-0.23l8.073,0Z"/></svg>