<?xml version="1.0" encoding="UTF-8" standalone="no"?><!DOCTYPE svg PUBLIC "-//W3C//DTD SVG 1.1//EN" "http://www.w3.org/Graphics/SVG/1.1/DTD/svg11.dtd"><svg width="100%" height="100%" viewBox="0 0 26 26" version="1.1" xmlns="http://www.w3.org/2000/svg" xmlns:xlink="http://www.w3.org/1999/xlink" xml:space="preserve" xmlns:serif="http://www.serif.com/" style="fill-rule:evenodd;stroke-linejoin:round;stroke-miterlimit:1.41421;"><path d="M22.724,6.283c0.074,-0.073 0.115,-0.172 0.115,-0.275c0,-0.103 -0.041,-0.202 -0.114,-0.275c-0.573,-0.573 -1.886,-1.885 -2.458,-2.457c-0.152,-0.152 -0.398,-0.152 -0.55,0c-1.12,1.119 -5.324,5.322 -6.443,6.441c-0.152,0.152 -0.399,0.152 -0.551,0c-1.119,-1.119 -5.324,-5.323 -6.443,-6.442c-0.152,-0.152 -0.398,-0.152 -0.55,0c-0.573,0.572 -1.885,1.882 -2.457,2.453c-0.074,0.073 -0.115,0.172 -0.115,0.276c0,0.103 0.041,0.202 0.114,0.275c1.121,1.12 5.327,5.326 6.447,6.446c0.073,0.073 0.114,0.172 0.114,0.275c0,0.103 -0.041,0.202 -0.114,0.275c-1.12,1.12 -5.326,5.326 -6.447,6.446c-0.073,0.073 -0.114,0.172 -0.114,0.275c0,0.104 0.041,0.203 0.115,0.276c0.572,0.571 1.884,1.881 2.457,2.453c0.152,0.152 0.398,0.151 0.55,-0.001c1.119,-1.12 5.323,-5.329 6.443,-6.449c0.073,-0.073 0.172,-0.115 0.275,-0.115c0.104,0 0.203,0.042 0.276,0.115c1.12,1.12 5.324,5.326 6.443,6.445c0.152,0.152 0.398,0.152 0.55,0c0.572,-0.571 1.885,-1.881 2.457,-2.453c0.073,-0.073 0.114,-0.172 0.114,-0.275c0,-0.103 -0.041,-0.202 -0.114,-0.275c-1.12,-1.12 -5.326,-5.322 -6.446,-6.442c-0.073,-0.073 -0.114,-0.172 -0.114,-0.275c0,-0.103 0.041,-0.202 0.114,-0.275c1.12,-1.12 5.326,-5.323 6.446,-6.442Z" style="fill-rule:nonzero;"/></svg>